<svg width="122" height="53" viewBox="0 0 122 53" fill="none" xmlns="http://www.w3.org/2000/svg">
<path d="M14.3239 3.92174L15.6663 0.80326H0.445652V14H15.6663L14.3239 10.8609H3.58478V8.63043H12.9815V5.4913H3.58478V3.92174H14.3239ZM30.4365 10.8609H21.4941V0.80326H18.355V14H31.7789L30.4365 10.8609ZM48.3476 3.92174L49.69 0.80326H34.4693V14H49.69L48.3476 10.8609H37.6084V8.63043H47.0052V5.4913H37.6084V3.92174H48.3476ZM66.7112 14C67.2069 14 67.5993 13.587 67.5993 13.112V8.63043L64.4601 9.51848V10.8609H55.5177V3.92174H64.4601V4.83043L67.5993 3.48804V1.6913C67.5993 1.19565 67.2069 0.80326 66.7112 0.80326H53.2667C52.771 0.80326 52.3786 1.19565 52.3786 1.6913V13.112C52.3786 13.587 52.771 14 53.2667 14H66.7112ZM76.3342 3.94239V14H79.4526V3.94239H84.1613L85.5037 0.80326H70.2831L71.6255 3.94239H76.3342ZM91.3364 8.63043H94.5374L99.1222 13.8554C99.2048 13.938 99.3287 14 99.4527 14H103.418L98.7092 8.63043H102.964C103.211 8.63043 103.418 8.42391 103.418 8.17609V1.23696C103.418 0.989129 103.211 0.80326 102.964 0.80326H88.1972V14H91.3364V8.63043ZM91.3364 3.94239H100.733V5.4913H91.3364V3.94239ZM120.641 14C121.136 14 121.529 13.587 121.529 13.112V1.6913C121.529 1.19565 121.136 0.80326 120.641 0.80326H107.196C106.701 0.80326 106.308 1.19565 106.308 1.6913V13.112C106.308 13.587 106.701 14 107.196 14H120.641ZM109.447 3.92174H118.39V10.8609H109.447V3.92174Z" fill="#00ADEE"/>
<path d="M33.8783 53C34.9739 53 35.8413 52.087 35.8413 51.037V41.1304L28.9022 43.0935V46.0609H9.13478V30.7217H28.9022V32.7304L35.8413 29.763V25.7913C35.8413 24.6957 34.9739 23.8283 33.8783 23.8283H4.1587C3.06304 23.8283 2.19565 24.6957 2.19565 25.7913V51.037C2.19565 52.087 3.06304 53 4.1587 53H33.8783ZM52.2739 46.9283H70.5805L73.7305 53H81.5826L66.3805 23.8283H56.4739L41.3174 53H49.1239L52.2739 46.9283ZM60.6739 30.7217H62.1805L67.5218 40.9935H55.3783L60.6739 30.7217ZM94.0193 41.1304H101.095L111.23 52.6804C111.413 52.863 111.687 53 111.961 53H120.726L110.317 41.1304H119.721C120.269 41.1304 120.726 40.6739 120.726 40.1261V24.787C120.726 24.2391 120.269 23.8283 119.721 23.8283H87.0802V53H94.0193V41.1304ZM94.0193 30.7674H114.791V34.1913H94.0193V30.7674Z" fill="black"/>
</svg>
