<svg width="10" height="14" viewBox="0 0 10 14" fill="none" xmlns="http://www.w3.org/2000/svg">
<mask id="path-1-inside-1_81:1856" fill="white">
<path d="M9.28317 13.9146C9.4486 14.0313 9.71225 14.028 9.87206 13.9071C10.0279 13.7891 10.0279 13.6022 9.87206 13.4842L1.00485 7.00345L9.87288 0.52326C10.0383 0.406476 10.0429 0.213822 9.88311 0.0929012C9.7233 -0.0279913 9.45969 -0.0313282 9.29422 0.0854273C9.29075 0.0878811 9.28735 0.0903616 9.28399 0.0929012L0.121931 6.78857C-0.0406437 6.90741 -0.0406437 7.10006 0.121931 7.21892L9.28317 13.9146Z"/>
</mask>
<path d="M9.28317 13.9146C9.4486 14.0313 9.71225 14.028 9.87206 13.9071C10.0279 13.7891 10.0279 13.6022 9.87206 13.4842L1.00485 7.00345L9.87288 0.52326C10.0383 0.406476 10.0429 0.213822 9.88311 0.0929012C9.7233 -0.0279913 9.45969 -0.0313282 9.29422 0.0854273C9.29075 0.0878811 9.28735 0.0903616 9.28399 0.0929012L0.121931 6.78857C-0.0406437 6.90741 -0.0406437 7.10006 0.121931 7.21892L9.28317 13.9146Z" fill="black"/>
<path d="M9.28317 13.9146L8.69311 14.7219L8.69974 14.7268L8.70645 14.7315L9.28317 13.9146ZM9.87206 13.9071L10.4754 14.7046L10.4755 14.7045L9.87206 13.9071ZM9.87206 13.4842L10.4754 12.6868L10.4688 12.6818L10.4621 12.6769L9.87206 13.4842ZM1.00485 7.00345L0.414846 6.19604L-0.689971 7.00337L0.414775 7.8108L1.00485 7.00345ZM9.87288 0.52326L9.29615 -0.293676L9.28947 -0.288964L9.28288 -0.284144L9.87288 0.52326ZM9.88311 0.0929012L10.4866 -0.704458L10.4864 -0.704598L9.88311 0.0929012ZM9.29422 0.0854273L8.71768 -0.731639L8.71738 -0.73143L9.29422 0.0854273ZM9.28399 0.0929012L9.87403 0.900279L9.88066 0.895436L9.8872 0.890484L9.28399 0.0929012ZM0.121931 6.78857L-0.468103 5.98119L-0.468196 5.98126L0.121931 6.78857ZM0.121931 7.21892L-0.468288 8.02617L-0.468137 8.02628L0.121931 7.21892ZM8.70645 14.7315C8.99047 14.932 9.31358 15.0034 9.59244 14.9999C9.87077 14.9963 10.1948 14.9169 10.4754 14.7046L9.26874 13.1096C9.38953 13.0182 9.50181 13.0009 9.56701 13C9.63273 12.9992 9.7413 13.0139 9.8599 13.0976L8.70645 14.7315ZM10.4755 14.7045C10.7601 14.4891 10.989 14.1354 10.989 13.6956C10.989 13.2558 10.7601 12.9022 10.4754 12.6868L9.26869 14.2817C9.13985 14.1842 8.98895 13.983 8.98895 13.6956C8.98895 13.4083 9.13983 13.2071 9.26859 13.1097L10.4755 14.7045ZM10.4621 12.6769L1.59492 6.19609L0.414775 7.8108L9.28199 14.2916L10.4621 12.6769ZM1.59484 7.81085L10.4629 1.33066L9.28288 -0.284144L0.414846 6.19604L1.59484 7.81085ZM10.4496 1.3402C10.7432 1.1329 10.989 0.781814 10.9997 0.333377C11.0104 -0.117572 10.7788 -0.483314 10.4866 -0.704458L9.2796 0.890262C9.14718 0.790037 8.99321 0.581082 9.00022 0.285888C9.00717 -0.00679684 9.16794 -0.203168 9.29615 -0.293676L10.4496 1.3402ZM10.4864 -0.704598C10.2058 -0.916883 9.8818 -0.996344 9.60347 -0.999873C9.3246 -1.00341 9.00162 -0.931993 8.71768 -0.731639L9.87077 0.902493C9.75229 0.986092 9.64385 1.0008 9.57811 0.999966C9.51291 0.999139 9.40059 0.981792 9.27979 0.890401L10.4864 -0.704598ZM8.71738 -0.73143C8.70526 -0.722867 8.69306 -0.713965 8.68078 -0.704681L9.8872 0.890484C9.88164 0.89469 9.87624 0.898628 9.87106 0.902285L8.71738 -0.73143ZM8.69396 -0.714477L-0.468103 5.98119L0.711966 7.59595L9.87403 0.900279L8.69396 -0.714477ZM-0.468196 5.98126C-0.761163 6.19541 -1 6.55387 -1 7.00374C-1 7.45358 -0.761186 7.81201 -0.468288 8.02617L0.712151 6.41168C0.842473 6.50697 1 6.70964 1 7.00374C1 7.29785 0.84245 7.50056 0.712058 7.59588L-0.468196 5.98126ZM-0.468137 8.02628L8.69311 14.7219L9.87324 13.1072L0.711998 6.41157L-0.468137 8.02628Z" fill="black" mask="url(#path-1-inside-1_81:1856)"/>
</svg>
